<svg xmlns="http://www.w3.org/2000/svg" xmlns:xlink="http://www.w3.org/1999/xlink" width="287" height="255" version="1.1" viewBox="0 0 287 255"><title>templates_mo</title><desc>Created with Sketch.</desc><g id="Page-1" fill="none" fill-rule="evenodd" stroke="none" stroke-width="1"><g id="templates_mo"><g id="Page-1"><g id="templates_mo"><path id="Path" fill="#204489" d="M0.672279839,184.781666 L159.679524,254.677465 L286.32772,182.218334 L127.320476,112.322535 L0.672279839,184.781666 Z M7.28287763,184.513997 L159.512536,251.321935 L279.816416,182.543294 L127.484375,115.674642 L7.28287763,184.513997 Z"/><path id="Path-Copy-2" fill="#18BFD6" d="M0.672279839,128.781666 L159.679524,198.677465 L286.32772,126.218334 L127.320476,56.322535 L0.672279839,128.781666 Z M7.28287763,128.513997 L159.512536,195.321935 L279.816416,126.543294 L127.484375,59.6746419 L7.28287763,128.513997 Z"/><path id="Path-Copy-3" fill="#FFF" d="M0.672279839,72.7816655 L159.679524,142.677465 L286.32772,70.2183345 L127.320476,0.32253504 L0.672279839,72.7816655 Z M7.28287763,72.5139974 L159.512536,139.321935 L279.816416,70.5432943 L127.484375,3.67464191 L7.28287763,72.5139974 Z"/></g></g></g></g></svg>